<svg width="24" height="25" viewBox="0 0 24 25" fill="none" xmlns="http://www.w3.org/2000/svg">
<path d="M0.695312 10.3359C0.695312 5.17969 4.89062 0.984375 10.0469 0.984375C15.2031 0.984375 19.3984 5.17969 19.3984 10.3359C19.3984 12.4688 18.6836 14.4258 17.4766 15.9961L23.207 21.7617C23.4531 22.0078 23.5938 22.3477 23.5938 22.7227C23.5938 23.5078 23.043 24.1055 22.2461 24.1055C21.8711 24.1055 21.5195 23.9766 21.25 23.707L15.4844 17.9297C13.9492 19.0312 12.0859 19.6875 10.0469 19.6875C4.89062 19.6875 0.695312 15.4922 0.695312 10.3359ZM2.69922 10.3359C2.69922 14.3906 5.99219 17.6836 10.0469 17.6836C14.1016 17.6836 17.3945 14.3906 17.3945 10.3359C17.3945 6.28125 14.1016 2.98828 10.0469 2.98828C5.99219 2.98828 2.69922 6.28125 2.69922 10.3359Z" fill="#FF73B8"/>
</svg>
