<svg width="37" height="36" viewBox="0 0 37 36" fill="none" xmlns="http://www.w3.org/2000/svg">
<path d="M3.73535 14.3516C3.73535 8.59473 7.73437 4.72754 12.6123 4.72754C15.5273 4.72754 17.6953 6.00196 18.9697 7.84766C20.2588 6.00196 22.4268 4.72754 25.3418 4.72754C30.2197 4.72754 34.2187 8.59473 34.2187 14.3516C34.2187 20.6357 28.9307 26.9053 20.874 32.1641C20.2002 32.6035 19.4678 33.0283 18.9697 33.0283C18.4863 33.0283 17.7539 32.6035 17.0801 32.1641C9.02344 26.9053 3.73535 20.6357 3.73535 14.3516ZM7.73437 14.3076C7.73437 19.0391 12.5098 24.5029 18.75 28.6484C18.8525 28.707 18.9258 28.7656 18.9697 28.7656C19.0283 28.7656 19.1016 28.707 19.2041 28.6484C25.4443 24.5029 30.2197 19.0391 30.2197 14.3076C30.2197 10.9238 27.9199 8.59473 24.8437 8.59473C22.3975 8.59473 21.123 10.001 20.1709 11.2754C19.7168 11.876 19.4238 12.125 18.9697 12.125C18.5303 12.125 18.1934 11.876 17.7832 11.2754C16.8896 10.001 15.5566 8.59473 13.0957 8.59473C10.0342 8.59473 7.73437 10.9238 7.73437 14.3076Z" fill="white"/>
</svg>
