<svg width="39" height="34" viewBox="0 0 39 34" fill="none" xmlns="http://www.w3.org/2000/svg">
<path d="M11.3306 4.3112C14.2497 4.3112 16.9059 5.48714 18.2617 7.43783C18.5246 7.81136 18.5522 7.89437 18.5522 8.25407V28.7155C18.5522 29.0752 18.3032 29.2965 17.9989 29.2965C17.8467 29.2965 17.6668 29.2274 17.5146 29.1029C16.0482 27.8439 14.0422 27.083 11.884 27.083C9.57357 27.083 7.26318 27.8577 5.52002 29.3519C5.271 29.5871 4.9528 29.6839 4.62077 29.6839C3.92904 29.6839 3.52783 29.2965 3.52783 28.6602V9.13949C3.52783 8.6276 3.54167 8.44775 3.69385 8.17106C5.11881 5.72233 8.28695 4.3112 11.3306 4.3112ZM27.5863 4.3112C30.6299 4.3112 33.798 5.72233 35.223 8.17106C35.3752 8.43392 35.389 8.6276 35.389 9.13949V28.6602C35.389 29.2965 34.9878 29.6839 34.2961 29.6839C33.964 29.6839 33.6458 29.5871 33.3968 29.3519C31.6536 27.8577 29.3433 27.083 27.0329 27.083C24.8747 27.083 22.8687 27.8439 21.4022 29.1029C21.2638 29.2274 21.0701 29.2965 20.918 29.2965C20.6136 29.2965 20.3646 29.0752 20.3646 28.7155V8.25407C20.3646 7.89437 20.3923 7.81136 20.6551 7.43783C22.0109 5.48714 24.6672 4.3112 27.5863 4.3112Z" fill="white"/>
</svg>
