<svg width="40" height="35" viewBox="0 0 40 35" fill="none" xmlns="http://www.w3.org/2000/svg">
<path d="M4.04663 31.6348V10.1003C4.04663 9.83057 4.07837 9.6084 4.23706 9.33862C5.64941 6.87891 9.23584 4.80005 13.6157 4.80005C17.0593 4.80005 20.0745 6.18066 21.6772 8.13257C23.28 6.18066 26.2793 4.80005 29.7388 4.80005C34.1028 4.80005 37.6892 6.87891 39.1016 9.33862C39.2761 9.6084 39.292 9.83057 39.292 10.1003V31.6348C39.292 32.936 38.4351 33.4438 37.5146 33.4438C36.9592 33.4438 36.499 33.1265 35.896 32.7615C34.1504 31.5713 32.0081 30.8413 29.8022 30.8572C27.5012 30.873 25.2319 31.73 23.4546 33.428C22.7722 34.0627 22.2485 34.269 21.6772 34.269C21.0901 34.269 20.5823 34.0627 19.884 33.428C18.1067 31.7141 15.8374 30.873 13.5522 30.8572C11.3464 30.8413 9.18823 31.5713 7.44263 32.7615C6.8396 33.1265 6.37939 33.4438 5.83984 33.4438C4.90356 33.4438 4.04663 32.936 4.04663 31.6348ZM6.60156 30.2859C8.28369 29.0798 10.8545 28.3022 13.6157 28.3022C16.25 28.3022 18.7732 29.2703 20.3918 30.5557V10.5605C19.2651 8.62451 16.6309 7.35498 13.6157 7.35498C10.6799 7.35498 7.88696 8.60864 6.60156 10.4653V30.2859ZM22.9468 30.5557C24.5654 29.2703 27.0886 28.3022 29.7388 28.3022C32.4841 28.3022 35.0549 29.0798 36.7371 30.2859V10.4653C35.4517 8.60864 32.6587 7.35498 29.7388 7.35498C26.7236 7.35498 24.0735 8.62451 22.9468 10.5605V30.5557Z" fill="white"/>
</svg>
